<svg width="620" height="180" viewBox="0 0 620 180" fill="none" xmlns="http://www.w3.org/2000/svg" role="img" aria-labelledby="title desc">
  <title id="title">Campus Care logo</title>
  <desc id="desc">A soft blood drop and medical cross mark with the Campus Care wordmark.</desc>
  <rect width="620" height="180" rx="36" fill="#FFFFFF"/>
  <g filter="url(#shadow)">
    <path d="M94 28C116 59 139 83 139 113C139 142.271 115.271 166 86 166C56.7289 166 33 142.271 33 113C33 83 56 59 78 28C81.9609 22.4146 90.0391 22.4146 94 28Z" fill="url(#drop)"/>
    <path d="M94 28C116 59 139 83 139 113C139 142.271 115.271 166 86 166C56.7289 166 33 142.271 33 113C33 83 56 59 78 28C81.9609 22.4146 90.0391 22.4146 94 28Z" stroke="#B80018" stroke-width="2"/>
    <path d="M86 68V128" stroke="white" stroke-width="15" stroke-linecap="round"/>
    <path d="M56 98H116" stroke="white" stroke-width="15" stroke-linecap="round"/>
    <path d="M106.5 51.5C117.5 68 126 84.5 126 102.5" stroke="white" stroke-opacity="0.34" stroke-width="7" stroke-linecap="round"/>
  </g>
  <g>
    <text x="176" y="83" fill="#101828" font-family="Inter, Segoe UI, Arial, sans-serif" font-size="46" font-weight="800" letter-spacing="-1.4">Campus Care</text>
    <text x="179" y="121" fill="#D6001C" font-family="Inter, Segoe UI, Arial, sans-serif" font-size="18" font-weight="800" letter-spacing="2.5">BLOOD DONATION PROJECT</text>
    <path d="M179 140H496" stroke="#F1B8BF" stroke-width="2" stroke-linecap="round"/>
    <text x="179" y="160" fill="#667085" font-family="Inter, Segoe UI, Arial, sans-serif" font-size="15" font-weight="600">Learn. Join. Support life together.</text>
  </g>
  <defs>
    <linearGradient id="drop" x1="46" y1="34" x2="127" y2="159" gradientUnits="userSpaceOnUse">
      <stop stop-color="#F04438"/>
      <stop offset="0.55" stop-color="#D6001C"/>
      <stop offset="1" stop-color="#A90013"/>
    </linearGradient>
    <filter id="shadow" x="12" y="3.81055" width="148" height="183.189" filterUnits="userSpaceOnUse" color-interpolation-filters="sRGB">
      <feFlood flood-opacity="0" result="BackgroundImageFix"/>
      <feColorMatrix in="SourceAlpha" type="matrix" values="0 0 0 0 0 0 0 0 0 0 0 0 0 0 0 0 0 0 127 0" result="hardAlpha"/>
      <feOffset dy="8"/>
      <feGaussianBlur stdDeviation="10"/>
      <feColorMatrix type="matrix" values="0 0 0 0 0.807843 0 0 0 0 0 0 0 0 0 0.0901961 0 0 0 0.22 0"/>
      <feBlend mode="normal" in2="BackgroundImageFix" result="effect1_dropShadow_1_1"/>
      <feBlend mode="normal" in="SourceGraphic" in2="effect1_dropShadow_1_1" result="shape"/>
    </filter>
  </defs>
</svg>
